<svg xmlns="http://www.w3.org/2000/svg" width="408.904" height="205.383" viewBox="0 0 408.904 205.383">
  <g id="logo" transform="translate(0.663 0.623)">
    <text id="Visual_Data" data-name="Visual Data" transform="translate(252.242 132.134)" fill="#fff" font-size="31" font-family="HelveticaNeue, Helvetica Neue"><tspan x="0" y="0">Visual Data</tspan></text>
    <text id="J_L" data-name="J&amp;&amp;L" transform="translate(252.242 89.134)" fill="#e0e0e0" font-size="58" font-family="HelveticaNeue, Helvetica Neue"><tspan x="0" y="0">J&amp;&amp;L</tspan></text>
    <g id="tabla-poligonal-de-triangulos" transform="matrix(-0.966, 0.259, -0.259, -0.966, 240.407, 150.525)">
      <g id="Group_242" data-name="Group 242" transform="translate(0)">
        <path id="Path_133" data-name="Path 133" d="M207.132,86.595l-28.768-56.23-.559-.472-54.971-16.91L85.9,27.356,62.116,0,60.855,0,32.732,3.464,13.212,29.208l-.874,1.153-.4,1.376L.421,71.212,0,72.656l.381,1.15,17.027,52.383,51.979,29.646,1-.032,33.67-22.486.853-.529L154.9,104.7l.936-.351,50.746-16.426Zm-2.743-1.216-56.853-19.32,29.772-33.6ZM103.223,130.663l-39.05-22.526,42.2-9.046ZM37.187,61.683,52.343,32.968,67.784,73.6ZM143.922,64.36,119.308,51.048l-.023-.98,3.979-32.876ZM124.443,15.169l51.405,16.09L146.162,64.766ZM68.685,86.786l3.071-10.5L106.206,97.2l-43.22,9.265Zm4.411-11.9L117,52.273,106.918,95.42ZM84.964,29.534l31.473,20.908L72.666,72.985Zm-14.6,44.634-.293.151L54.18,32.487l28.778-2.8Zm-.638,2.218-2.8,9.661-5.674,19.4-23.213-41.4Zm38.963,19.728,10.1-43.2,25.433,13.755-34.9,29.536Zm36.63-27.905,8.147,34.376-41.659-6.018Zm-27.8-19.324L87.58,28.715l34.038-13.6ZM83.709,27.72,53.566,30.65l.421-.8H53.7L61.982,2.767ZM33.755,5.238l26.493-3.26L51.726,29.85H15.094Zm17.1,26.5L35.734,60.392,15.039,31.739Zm-37.3,1.174L34.318,61.655,2.382,71.237Zm21.9,30.369,23.715,42.306L3.336,72.919ZM2.671,74.718l56.407,33L19,123.98ZM61.06,108.956l.683,1.219,6.869,43.035L20.564,125.387Zm9.5,44.46L63.628,110l38.6,22.269ZM105.136,130.5l3.177-31.822,1.35-.287.228-.193,41.938,6.061ZM147.2,67.939,203.293,87l-47.9,15.5Z" fill="#fff7f7" stroke="#fff" stroke-width="1"/>
      </g>
    </g>
  </g>
</svg>
