<?xml version="1.0" encoding="utf-8"?>
<!-- Generator: Adobe Illustrator 16.0.0, SVG Export Plug-In . SVG Version: 6.00 Build 0)  -->
<!DOCTYPE svg PUBLIC "-//W3C//DTD SVG 1.1//EN" "http://www.w3.org/Graphics/SVG/1.1/DTD/svg11.dtd">
<svg version="1.1" id="Layer_1" xmlns="http://www.w3.org/2000/svg" xmlns:xlink="http://www.w3.org/1999/xlink" x="0px" y="0px"
	 width="767.961px" height="872.956px" viewBox="0 0 767.961 872.956" enable-background="new 0 0 767.961 872.956"
	 xml:space="preserve">
<rect fill="#5D5E5E" width="767.961" height="872.956"/>
<g>
	<path fill="none" stroke="#FFFFFF" stroke-miterlimit="10" d="M295.432,289.752c0.631-0.875,0.184-2.375-0.28-3.625
		s-0.944-2.51,2.608-4.63c-0.664-0.365-1.32-0.655-1.697-0.87c-0.875-0.5-3.625-3.125-4.625-4.125s-1.5-4.5-2.25-4.875
		c-3,2.5-6.375-1.5-7.375-2.387s-2.75,1.012-4,0.887s-1.875-0.5-2.785-1.382c-0.91-0.882-2.909,0-2.911,0
		c0.107,0.899-0.886,2.329-0.304,3.007c0.75,0.875,0.25,1.375-0.375,3.25s-0.125,2.625,2.25,4.5s3.625,1.75,4,0.25
		s-1.375-2-1.625-2.625s3.75,2.375,4.25,2.5s0.625,2.5,1.375,2.5s3.875,1.5,6.75,4.25s4.125,4.125,5,4.875
		c0.35,0.3,1.102,0.619,1.994,0.895C295.432,292.146,294.801,290.627,295.432,289.752z"/>
	<path fill="none" stroke="#FFFFFF" stroke-miterlimit="10" d="M275.028,268.745c0.91,0.882,1.535,1.257,2.785,1.382
		s3-1.774,4-0.887s4.375,4.887,7.375,2.387c-0.75-0.375-1.5-2.125-1.75-3.125s0.5-1.625,1.125-2.125s0.875-1.75,0-3
		s0-2.875-0.125-3.875s1.25-2,1.875-2.375s0.25-4.25,0.125-7.625s2.75-5.625,3.75-7.125s-0.25-1.625-0.988-2.875
		s-0.262-2.125-0.012-4s-3.75-0.25-4.25-0.75s-1-1-2.125-1.25s0-0.75,0.625-2.125s-3-1.625-3.5-1.542s-0.625,0.417-2-0.708
		s-2.5-1.125-2.875-0.75s-2.25,0.5-3.625,0.375s-1.25-0.625-2.125-0.875s-1.625,0.125-3.25,1.125s-4.75,0.875-7.25,0.75
		s-3.375-0.75-5.75-1.5s-7.125,0.75-7.875,0.625c-0.375-0.062-0.562-0.312-0.656-0.719h-3.469v-17.031h-14.125v4.375h-4.25v1.25
		c0,0,8.25,6.25,8.25,7.875s-0.625,1.875-0.625,1.875h-10.375c0,0-3.625,6.25-3,8.125s-0.625,2.5-0.625,2.5v2.084
		c0.098,0.113,0.186,0.215,0.25,0.291c0.75,0.875,4.625,3.75,7.875,4.5s3.75,1,7.25,1.5c0.211,0.03,0.408,0.065,0.594,0.104
		c0.415-0.448,0.859-0.826,1.281-0.979c1.375-0.5,2.5-3.25,4.125-3.625s1.75-1,3.375,0v-5.75l7.25-5.375l3.75-1.719l-3.75,1.719
		l-7.25,5.375v5.75c1.625,1,2.25,2.46,4.375,3.23s1.25,0.52,3.5,0.645s3.5-0.375,3.125,1s0.5,6.625,0.5,6.625
		s0.179,0.193,0.484,0.523c0.002-0.001,1.392-0.773,3.016-0.523c1.625,0.25,3.5-1.5,3.875-2.875s0.75-3.5,0.875-3.145
		s2.125-1.605,3.25-2.855s3.625,0.875,5.5,0.875s4.25-4.5,5.875-6.25s3.125,0.25,6.375,0s7.196-1.668,7.196-1.668
		s-3.946,1.418-7.196,1.668s-4.75-1.75-6.375,0s-4,6.25-5.875,6.25s-4.375-2.125-5.5-0.875s-3.125,3.21-3.25,2.855
		s-0.5,1.77-0.875,3.145s-2.25,3.125-3.875,2.875c-1.624-0.25-3.014,0.522-3.016,0.523c2.448,2.639,13.529,14.546,14.641,15.102
		c0.28,0.14,0.398,0.358,0.429,0.618C272.119,268.744,274.118,267.863,275.028,268.745z"/>
	<path fill="none" stroke="#FFFFFF" stroke-miterlimit="10" d="M256.063,245.877c0.375-1.375-0.875-0.875-3.125-1
		s-1.375,0.125-3.5-0.645s-2.75-2.23-4.375-3.23s-1.75-0.375-3.375,0s-2.75,3.125-4.125,3.625c-0.422,0.153-0.866,0.531-1.281,0.979
		c2.896,0.602,2.887,2.146,4.531,2.146c1.75,0,2.375,0.25,4.5,1.75s6.125,1.5,8.25,1.5s3,1.5,3,1.5S255.688,247.252,256.063,245.877
		z"/>
	<path fill="none" stroke="#FFFFFF" stroke-miterlimit="10" d="M253.188,206.002c-1.25-0.625-2.125,0.125-2.75,1.5
		s-1.75,2.25-1.75,2.25l-2.75,1.375h-0.875v17.031h3.469c-0.094-0.406-0.094-0.969-0.094-1.656c0-1.375,3-3.5,4.5-5.25
		s0.875-2.125,0.375-3.125s0.125-3.75,0.625-5.5c0.499-1.747,1.246-3.616,1.25-3.624
		C254.613,207.744,253.849,206.333,253.188,206.002z"/>
	<path fill="none" stroke="#FFFFFF" stroke-miterlimit="10" d="M403.328,399.624l-0.133,0.379
		C403.381,399.975,403.405,399.832,403.328,399.624z"/>
	<path fill="none" stroke="#FFFFFF" stroke-miterlimit="10" d="M484.897,295.336c-2,2.167-3.667,2.167-3.5,3.833s3.001,2,2.667,3.5
		s-3.333,3.166-4.5,3.333s-2.666-0.167-2.5,1s1.475,2.333-0.013,3.5s-1.655,1.5-0.821,2.5s6.002,6.832,6.002,6.832
		c0.667-2.667,3.667-0.5,4.833,0.667s0.167,3.166,2.334,5s1,3.333,0.5,6s-1.667,4.333-1.834,7s1.667,4.833,2.167,7.833
		s7.333,6.667,8.333,6.5s1.834-1.667,2.667-1.833s6.834-3.5,7.667-2.833s2.833-2,8.5-1.167s3.833-1.667,3.333-3
		s2.667-1.5,5.667-1.667s2.833-0.167,4.333-0.333s5,2.833,8.834,1.167s4.666,0.833,7.166,0.833s5.5-8.667,6.667-11.667
		c0.529-1.361,2.156-3.923,3.776-6.316v-0.968c-0.169-0.106-0.332-0.205-0.487-0.298c-1.25-0.75-1.25-0.75-3.125-1.25
		s-5.375-5-6.375-5.875s-2.25-3.25-4.375-1.625s-3.125,0-3.125,0s-0.203-0.177-0.518-0.453c-0.002,0.001-4.439,3.287-4.772,4.954
		s-0.5,3.167,0,5.667s2.123,3.167,2.229,6.333s-0.896,4-0.729,5.167s-2.729,5.065-2.729,5.065s2.896-3.899,2.729-5.065
		s0.834-2,0.729-5.167s-1.729-3.833-2.229-6.333s-0.333-4,0-5.667s4.771-4.953,4.772-4.954c-0.398-0.348-0.979-0.857-1.607-1.407
		c-1.125-0.985-2.625-1.015-3.5-1.015s-6.375-0.875-7.25-1s-4.375,0.25-4.75,1.349s-2.625,0.651-4,0s-2.75-0.974-3.875-0.224
		s-2.5-0.625-2.5-0.625s0.375-1.125-1.75-1.875s-2.375-2.5-3.875-3.972s-2.25-1.528-3.875-1.528s-1.75,1.125-2.125,1.375
		s-0.75,0.375-0.75-1.125s0-4.25,0-5s-8.625-7.125-10.25-8.875C489.063,291.627,486.897,293.169,484.897,295.336z M504.065,327.835
		c0,0,1-1.167,1-4.167s0.833-2.167,3.333-3.167s2.167-2,2.167-5s1.839-2.344,1.839-2.344s-1.839-0.656-1.839,2.344s0.333,4-2.167,5
		s-3.333,0.167-3.333,3.167S504.065,327.835,504.065,327.835s-0.166,0.834,1.167,2.667s1.332,3.666,2.999,3.833s2,1.333,2.167,2
		s0.512,2.667,2.006,4s3.311,5.535,3.319,6.518c-0.009-0.982-1.825-5.184-3.319-6.518s-1.839-3.333-2.006-4s-0.5-1.833-2.167-2
		s-1.666-2-2.999-3.833S504.065,327.835,504.065,327.835z"/>
	<path fill="none" stroke="#FFFFFF" stroke-miterlimit="10" d="M317.23,395.668c-1.666,1.333-2,1-2,2.833s0.9,1,2.45,1.167
		s1.884,0,3.884,1.833s3.334,3.667,4.5,3.667s3.666-0.5,3.666-3.167s2.332-7,3.999-9s1.168-4.167,5.668-5.5
		s8.166-3.166,10.333-4.833s4.666-4.167,6.166-6.167s0.334-3.333,1.834-4.5s1-2.5,0.833-3.833s-2.501-3.667-2.167-4.5
		c0,0-4.332-3.667-6.165-4.167s-1.167,1.833-5.167,1.333s-4.833-2.667-5.167-3.333s-2.666-1.667-5.333-2.167
		s-6.251-4.958-6.251-4.958c0.75,1.125,0,2.25-0.75,3.125s-4.625,1.375-5.875,1.625s-3.5,1.125-2.75,3.875s-0.5,3.5-1.75,5
		s-1.75,3.25-1.875,3.875s-0.5,2.375-1.5,3.125s-2,1.25-1.125,3.75s0,3.375-0.375,6.25s2.25,4.75,3.5,4.75s3-1.125,3.75-1.5
		s1.125,1.625,0.625,3.75s-2.625,5-2.625,5s-0.062,0.208-0.254,0.349C317.734,394.241,317.892,395.139,317.23,395.668z"/>
	<path fill="none" stroke="#FFFFFF" stroke-miterlimit="10" d="M320.759,283.489c-0.352,0.513-0.655,1.091-1.071,1.388
		c-0.875,0.625-2.875,1.25-4.375,1.875s-3.375,2.125-6.25,2.5s-3.25-1-3.75-2s-1.125-0.5-1.125-0.5s-0.375,1.25-1.75,1.25
		s-2.125-3.25-2.625-4.625c-0.285-0.782-1.176-1.398-2.053-1.88c-3.553,2.12-3.072,3.38-2.608,4.63s0.911,2.75,0.28,3.625
		s0,2.394,0,2.395c1.342,0.414,3.005,0.73,4.131,0.73c1.875,0,3.125,1.375,5.375,1.25s1.375,3.75,2.25,4.125s1.625-0.5,2.375-1.625
		s1.875,3.75,2.25,5.125s5.125-0.875,6.75-1.75s-2-3.875-2.75-5.125s0.75-1.875,2.75-2.375s3.375-2.25,3.5-3.375
		s-0.125-2,0.375-2.25C319.179,286.273,320.654,283.668,320.759,283.489z"/>
	<path fill="none" stroke="#FFFFFF" stroke-miterlimit="10" d="M338.188,299.002c1.875,0.125,2.125,0.25,2.875-1
		s3.375-1.625-0.375-7.375c-1.25-0.375-0.125-0.625-1.625-2.25s-5.875-3.875-7.375-4.25s-1.75-0.25-3.375-0.75s0,0-1.75-0.875
		s-2.875,0.125-4.25,0c-0.722-0.065-1.166,0.421-1.554,0.987c-0.105,0.179-1.58,2.784,1.679,3.388c0.5-0.25,2,0.125,3.75-0.125
		s2,0.375,3.375,2s2.75,2.5,3.125,2.5s2,0.75,2.375,1.875s-1,1.5-1.5,3.25c-0.406,1.422,2.406,4.164,3.475,5.143
		C337.038,301.518,336.314,298.877,338.188,299.002z"/>
	<path fill="none" stroke="#FFFFFF" stroke-miterlimit="10" d="M334.564,355.335c2.667,0.5,4.999,1.5,5.333,2.167
		s1.167,2.833,5.167,3.333s3.334-1.833,5.167-1.333s6.165,4.167,6.165,4.167c0.334-0.833,3.168-0.667,4.834,0
		s4.473,3.166,6.319,5.333s0.348,2.667,3.014,3.833s2.167,1.5,3,3.167s1.167,2.167,3,2.667s-1,1.5,0,2.333s4,3.269,6,3.134
		s5-3.301,6.5-2.634s1.668,1.833,4.001,1s3.666,1.769,4.666,1.634s6.834,0.7,5.167,3.033s-6,8.5-4.5,8.5
		c1.253,0,4.538,2.899,4.931,3.954l0.569-1.623l1.833-9.333c0,0,3-13.667,3-15s-2-5.333-2-5.333c-5.833-4.5-3-5.833-3-8.833
		s3.5-1.5,6.167-2s1-2.167-2.167-3.167s-2.166-4.333-1.666-6s11.5-0.333,11.5-0.333s1.5-1.167,2.5-0.667s3-0.333,4.258-1.667
		c0.906-0.961,2.278,1.371,4.033,4.43c-0.001-0.009-0.792-6.262-2.363-8.427c-1.572-2.167-4.095-1.5-4.262-2.5s1.167-1.667,2.592-3
		s2.908-1.333,0-5s-2.592-8.5-2.758-10.833s1.666-4.167,1.666-5.667s1.083-3.161,1.083-3.161c0.25-2.119-4.75-1.006-7-0.756
		s-4.125,0.125-5.25-0.375s-0.625,1.25-2.5,1.125s-4.25-4.75-6.625-6.963s-3.625-0.662-5.125-1.287s-3,2.125-4.625,1.024
		s-1.375-0.274-4.5-0.024s-1.75-1.5-3.875-3.25s-2.375-2-2.375-4s1.5-3.75,0.625-4s-2.25-4-3.375-5.875s-2.125-1.375-3.25-2
		s0-1,1.125-3.5s2.125-6.875,2.375-8.25s2.625-4,3.75-4.125s3.005-1.492,3.005-1.492s-1.88,1.367-3.005,1.492s-3.5,2.75-3.75,4.125
		s-1.25,5.75-2.375,8.25s-2.25,2.875-1.125,3.5s2.125,0.125,3.25,2s2.5,5.625,3.375,5.875s-0.625,2-0.625,4s0.25,2.25,2.375,4
		s0.75,3.5,3.875,3.25s2.875-1.077,4.5,0.024s3.125-1.649,4.625-1.024s2.75-0.926,5.125,1.287s4.75,6.838,6.625,6.963
		s1.375-1.625,2.5-1.125s3,0.625,5.25,0.375s7.25-1.362,7,0.756c0,0-1.083,1.661-1.083,3.161s-1.832,3.333-1.666,5.667
		s-0.15,7.167,2.758,10.833s1.425,3.667,0,5s-2.759,2-2.592,3s2.689,0.333,4.262,2.5c1.571,2.165,2.362,8.418,2.363,8.427
		c0.681,1.187,1.417,2.479,2.209,3.737c2.834,4.5,7.834,2.334,9.001,1.167s2,2.667,4,0s4.5-2.833,6.5-4.167s3.666-1.167,3.5-2.5
		s5-3.667,6-4.333s-2.166-1.667-3.666-1.833s-1.5-0.833-1.834-2.5s-1.5-3.667-1.666-6.333s-1.334-3-3.667-5s1.667-0.667,2.667-0.833
		s3.333,1.833,4.166,1.667s2.167-0.5,5.334,1.333s2.5,1.667,3.5-0.667s3-1.667,4.166-1.667s3,0.167,6.334-1.667s6.666-4,7.333-6.666
		c0,0-5.168-5.832-6.002-6.832s-0.666-1.333,0.821-2.5s0.179-2.333,0.013-3.5s1.333-0.833,2.5-1s4.166-1.833,4.5-3.333
		s-2.5-1.833-2.667-3.5s1.5-1.667,3.5-3.833s4.166-3.709,4.166-3.709c-1.625-1.75-2.75-1.25-4.5-1.25s-3,0.75-3.75,0.75
		s-1.75,0.125-2.625-0.375s-0.375-1.875-0.375-3.25s1.375-2.25,1.5-3.75s-0.625-1.25-1.375-1.375s-2.25,0-3.25-1.375
		s-1.5-0.75-2.25-0.875s-1,0.375-1.5,0s-1-0.875-1.5-0.375s-1.375,0.5-1.875,0.75s-1-1.375-1.125-2.25s-1.625-1.75-2.25-1.75
		s-0.625-1.375-2.625-2.25s-5.125-0.125-6.25,0s-2.875,1-2.875,1s-1.5,0.875-2.25,0.875s-1.5,0-3,1.5s-5.875,0.25-7.625,0
		s-3.25-2.125-3.875-3.625s-6.5-0.625-8.125-0.375s-5.75,1.75-8.25,1.625s-1.875-2.375-2.75-4.75s-2.125-2.375-4.375-3.5
		s-5.75-0.5-7.125-0.5s-4,1-5.125,1.625s-4.5,1.25-6.125,1.5s-2.75,2.5-3,4s2.375,3.875,3.236,6.125s0.139,3.125-0.861,5.625
		s-2,1.875-3,1.75s-1.5-1.125-1.5-1.875s-0.375-1.375-1.25-1.875s-1.375-0.625-1.375-2.125s0.625-3,1.75-4.75
		s1.125-4.125,0.875-5.625s-0.375-1.875-1.375-2.125s-0.5-1.125-0.5-2.625s3.625-1.625,4.375-2s1-0.875,2.25-1.375
		s0.5-2.75-1.5-3.625s-3,0.375-3.75,0.875s-1.125,0.125-1.875,0s-1.125,2-1.25,2.375s-1.25,1.25-2.875,1.625s-4.5,2.375-6,3.375
		s-2.375,0.875-4,0.875s-1.625-0.625-2.625-0.75s-1,1.875-1.125,3.125s-2.75,2.125-3.5,1.875s0.25-1.875,0-2.25
		s-2.625-0.625-3.375,1.25s-3.375,2.625-4.5,4.625s-0.75,5-0.875,6.375s-0.625,1.625-1.5,1.5s-1.125,0.375-1.5,1
		s-4.75,4.25-6.601,5.125s-0.524,2-0.149,4.375s0,2-0.625,1.75s-2-3.625-2.875-4.25s-1-1-2.25-1.375
		c3.75,5.75,1.125,6.125,0.375,7.375s-1,1.125-2.875,1c-1.874-0.125-1.15,2.516-1.15,2.518c0.246,0.226,0.4,0.357,0.4,0.357
		s1.25,2.125,2.625,4.375s1.75,2.5,1.75,2.5c-1.5,1.25-1.25,2.125-0.25,3.25s1.125,1.75,0.125,4.375s0,9.875,0.25,11.5
		s0.25,2.25,1.75,2.5s-3.375,7.125-5.5,9.875s-4.25,1.875-5.5,2s-2,1.25-1.625,3.875s-2.25,2.125-2.75,2.5s-0.75,0.625,0,1.75
		C328.313,350.377,331.897,354.835,334.564,355.335z"/>
	<path fill="none" stroke="#FFFFFF" stroke-miterlimit="10" d="M286.563,178.502c1.125-0.125,3.25-1,3.5-2s2.25-0.25,4.125-0.75
		s4-2.625,6.625-3.75s6.875,0.75,7.25,1.125s-2.25,2-2.25,2.5s6.75,1.25,9.375,1.25s3.625,0.875,3.625,0.875
		c4.125,2.875,6.625,3.375,10.5,3.75s3.75,2.25,4,4.125s4.875,3.5,8.5,3.25s1.875,2.625,1.5,3.875s-2.375,1.5-2.875,3.125
		s2.75,0,2.75,0s8.875-1.125,10.625-1.247s3.25-0.753,7-0.253s4.125,0.125,7.5,0s-0.625-2-2.625-2.75s-4.625-1.75-7.75-2.25
		s-1.75-1.625-2.25-2.75s-7.25-2.75-12-4.375s-5.125-3.625-7.5-5.102s-4.125-1.898-6.125-2.023s-1.75-0.25-4.25-1.625
		s-2.125-2.75-4.375-2.875s-4.625-1.375-8.125-2s-10.125,0-10.5,0s-3,1.375-7.5,1.5s-6.75,3.875-7.5,5.75s-1.25,1.125-1.25,1.125
		C285.753,177.261,285.438,178.627,286.563,178.502z"/>
	<path fill="none" stroke="#FFFFFF" stroke-miterlimit="10" d="M334.813,208.252c-1.687,0.263-0.25,2.625,2.75,3
		s3.75,1.25,6.25,1.483s3.25-0.483,5.75-0.108s3.5-0.125-1.375-3.125S334.813,208.252,334.813,208.252z"/>
	<path fill="none" stroke="#FFFFFF" stroke-miterlimit="10" d="M376.063,198.238c2.75,0.514,3,0.389,3.125,1.264
		s-0.625,3.375,0.375,3.875s3,1.75,2.875,2.75s-1,1.86-3,1.618s-11.277-2.493-11.889-0.993s-1.264,2.625,0,2.625
		s3.264,1.148,5.014,0.887s4.5,0.012,6.125,0s3.875,0.262,5.125,0s4.375,1.363,3.125-1.137s-2.125-3-1.25-3.75s1.5-0.912,1-2.081
		c0,0,2-3.544,0.25-5.669c0,0-0.375,1.375-2.5,0s-9.195-2.181-9.535-1.028S373.313,197.725,376.063,198.238z"/>
	<path fill="none" stroke="#FFFFFF" stroke-miterlimit="10" d="M389.688,201.127c-0.5,2-0.295,2.75-0.71,4.75s-0.21,5.375,0,6.25
		s0.96,1.75,1.835,1.25s1.375-2.666,2.5-2.833s0.875-3.057,2.375-2.799s1.25,1.132,2.75,1.257s0.875-1.515,3.875-1.257
		s5.875-1.132,7.5,0s1.375,1.757,2.625,1.757s0.875-1.765,1.75-1.757s3.125-3.118-1.25-3.868s-6.875-1.5-7.875-2.375
		s-1.375-4.375-4.25-4.25s-6.5-2-7.625-2s-5.453,0.011-5,0.795C388.188,196.047,390.188,199.127,389.688,201.127z"/>
	<path fill="none" stroke="#FFFFFF" stroke-miterlimit="10" d="M426.063,210.544c2.25,1.458,7.5,0.708,7.5,0.708l3.625-1.653
		c0,0,2-1.222-0.5-1.847s-10.75-1-12,0C424.688,207.752,423.813,209.086,426.063,210.544z"/>
	<path fill="none" stroke="#FFFFFF" stroke-miterlimit="10" d="M368.081,721.836c0,0,0.978-4.667,1.644-6s-0.333-3.667-1.5-3.833
		s-2,3.833-2,3.833s-0.5,2.333,0,5.333S368.081,721.836,368.081,721.836z"/>
	<path fill="none" stroke="#FFFFFF" stroke-miterlimit="10" d="M401.257,515.548c-0.082,0.067-0.168,0.129-0.252,0.193
		C401.096,515.676,401.18,515.612,401.257,515.548z"/>
	<path fill="none" stroke="#FFFFFF" stroke-miterlimit="10" d="M402.879,513.499c0.41-0.558,0.782-1.025,0.957-1.055
		c0.391-0.066,2.992,0.493,3.195,0.423c-0.231-0.164-0.472-0.259-0.719-0.24C404.724,512.749,403.852,511.565,402.879,513.499z"/>
	<path fill="none" stroke="#FFFFFF" stroke-miterlimit="10" d="M401.459,515.37c0.006-0.006,0.014-0.017,0.02-0.023
		c-0.055,0.051-0.108,0.104-0.166,0.151C401.363,515.455,401.418,515.412,401.459,515.37z"/>
	<path fill="none" stroke="#FFFFFF" stroke-miterlimit="10" d="M399.221,516.772l0.002,0.008c0,0,0.072-0.036,0.172-0.086
		C399.336,516.719,399.278,516.749,399.221,516.772z"/>
	<polygon fill="none" stroke="#FFFFFF" stroke-miterlimit="10" points="388.952,804.277 388.958,804.275 388.958,804.275 	"/>
	<path fill="none" stroke="#FFFFFF" stroke-miterlimit="10" d="M401.313,515.498c-0.019,0.017-0.035,0.033-0.056,0.05
		C401.276,515.531,401.294,515.515,401.313,515.498z"/>
	<path fill="none" stroke="#FFFFFF" stroke-miterlimit="10" d="M402.813,513.627c0.022-0.047,0.044-0.084,0.066-0.128
		c-0.501,0.681-1.059,1.493-1.4,1.848C402.032,514.85,402.51,514.271,402.813,513.627z"/>
	<path fill="none" stroke="#FFFFFF" stroke-miterlimit="10" d="M401.005,515.741c-0.559,0.401-1.288,0.789-1.61,0.953
		C399.931,516.46,400.487,516.137,401.005,515.741z"/>
	<polygon fill="none" stroke="#FFFFFF" stroke-miterlimit="10" points="388.958,804.275 388.958,804.275 391.729,803.333 	"/>
	<path fill="none" stroke="#FFFFFF" stroke-miterlimit="10" d="M503.396,607.833c4.166-4.667,6.667-6.166,16.167-11.333
		s5.5-9.333,5.167-12.5s-0.834-2-3.167-2.166c-0.419-0.03-0.693-0.1-0.86-0.23c0.137,5.765-6.637,11.235-7.97,11.402
		s-2.834,3.5-3.834,3.667s-1.833-0.667-2.5-0.667s-0.333,1.167-1.833,1.667s-3-0.834-4.833-1s-1.667,0-3.834-0.667
		s-1.833-0.833-5.5-1S487,593.839,487,593.839s2.232-2.333,3.565-3.833s1.5-3.667,1.871-4.5s2.796-2.667,2.962-3.333s2-2.834,2-4
		s-12.5-6.168-15.836-8.834s-5.998-2-8.665-3.167s-9.167-8.334-10.833-10.501s-1.5-4.834-4-6.001s-8.166,0.334-9.166,1.167
		s-2.167,5.167-3.167,5.735s-2.833-5.235-3.667-5.902s-6,0.5-9.166-2s-2.5,1-2.5,1s-0.334,1.167-3.167,1.167
		s-4.531,5.735-4.531,5.735s1.698-5.735,4.531-5.735s3.167-1.167,3.167-1.167s-0.666-3.5,2.5-1s8.332,1.333,9.166,2
		s2.667,6.471,3.667,5.902s2.167-4.902,3.167-5.735s6.666-2.334,9.166-1.167s2.334,3.834,4,6.001s8.166,9.334,10.833,10.501
		s5.329,0.501,8.665,3.167s15.836,7.668,15.836,8.834s-1.834,3.334-2,4s-2.591,2.5-2.962,3.333s-0.538,3-1.871,4.5
		S487,593.839,487,593.839s-0.269,1,3.398,1.167s3.333,0.333,5.5,1s2.001,0.501,3.834,0.667s3.333,1.5,4.833,1
		s1.166-1.667,1.833-1.667s1.5,0.834,2.5,0.667s2.501-3.5,3.834-3.667s8.106-5.638,7.97-11.402c-0.76-0.595,0.827-2.498,2.194-8.104
		c1.667-6.834-0.667-6.166-4.834-6s-4.499-8.667-4.499-12s-2.167-2.333-3.334-2.186s-2-2.647-3.333-0.814s-7,0-8.833,0
		s-1.334-2.167-1.167-4.167s1.168-4.499,1.168-7.832s-0.834-4.334-0.667-5.167c0.077-0.383,0.151-1.227,0.196-2.151
		c-0.006-0.006-5.531-5.844-11.196-5.677c-5.667,0.167-15.167,3.007-16,2.837s-3,0.85-3.5,2.84s-3.834,3.49-3.667,4.49
		s-0.179,4-0.006,4.5s-1.855,8.188-3.675,8.678c1.819-0.489,3.848-8.178,3.675-8.678s0.173-3.5,0.006-4.5s3.167-2.5,3.667-4.49
		s2.667-3.01,3.5-2.84s10.333-2.67,16-2.837c5.665-0.167,11.19,5.671,11.196,5.677c0.052-1.09,0.061-2.294-0.029-3.016
		c-0.166-1.334,3-4,3-4.5s1-4.166,1.333-8.499s-1.333-3.667-3.833-6.167s-1.334-3.834-1.501-7s-9.666-1.5-11.666-1.667
		s-2.668-1.166-2.668-1.166s-1-8.166-0.833-8.833s0.5-3.833-0.167-9.5s-11-4.167-12.5-4.833s-1.333-2.334-3.333-2.834
		s-5.834-3.667-8.834-4.167s-6.5-1.5-7.667-2.666c-1.167-1.168-4.667-4-4.833-4.667s-2.334-1.833-2.334-4.167
		c0-2.332,0.334-2.333-0.333-5.833s0.5-4.667-1.166-6.833c-1.666-2.167-11.334,2.333-13.334,4.166s-3.5,0.667-4.166,2
		s-3.667,1.167-5.667,3.167s-2.667,1.167-6.333,0.167c-1.274-0.349-3.601-0.17-6.088,0.208c1.58,0.13,2.948,0.609,3.587,2.127
		c1.333,3.167,6,8.833,5.333,10.167s-2.499,3.501-2.333,4.667s-0.334,4.666-0.667,5.333s1.667,3.834-1.5,7.167
		s-0.834,4.333-0.667,4.833s0.501,2.166-0.666,3.333s-1.5,4.334,0.833,5.667s1.001,4.5-0.333,6s-3.833,1.499-3,3.333
		s1.084,3.458,1.084,3.458c0.247-0.019,0.487,0.076,0.719,0.24h0.003c0.195-0.073,2.945,0.26,2.945,0.26s-2.75-0.333-2.945-0.26
		h-0.003c1.294,0.917,2.301,4.295,2.406,5.885c0.125,1.875,2.25,6.625,3.625,8.625s-0.875,4.25-1.875,6.125s1.625,5.875,2.75,7.125
		s2,4.125,2.625,7.5s0.5,4.625,1.625,7s4.625,0.75,5.625,1.875s-0.625,3.875-2,5.25s0.75,2.75-0.5,4.25s-8.5,4.5-9.5,5.25
		s1,3.375-0.375,4.5s1.125,4.625,0.875,6.625s-0.625,3.375,0.5,5.25s-1.375,3.25-3.125,3.375s-2.25,2-2.375,3
		s-3.25,5.75-4.625,6.125s-1.5,5.5-1.625,6.625s-1.25,1.125-2,2.75s0.625,5.625,0.625,6.5s-2.5,2.125-2.625,2.5
		s-0.5,2.625-1.375,4.375s-1.625,2-1.75,4s2.625,5.625,2.5,7.125s1.5,4.375,1.625,6.25s0.875,2.625,0.875,6s-1.75,5-3.75,7.875
		s-1.25,4.5-0.75,5.125s-0.25,3.25-0.5,4.5s-1.875,2.125-3.125,2.875s-1,1.125-2.125,4.625s0,6.75,0.875,10.125
		s-0.625,3.625-2.125,4s-1.25,3.5-1.375,4.375s-0.75,2.375-1.625,3.125s0,2.375-1.375,3.875s-0.5,2.375-1.5,4.375
		s0.375,5.375,0.375,7s0.875,3.5-0.5,4.5s-2.125,4.5-0.625,7.125s1.375,7.875,2,9.875s0.625,2.625-0.75,3.5s2.125,2.875,0.75,5.125
		s-0.875,5.25-1,6.75s0.25,2.625-1,3.75s-1,3.875-2.125,5.125s-1.75,1.5-1.875,4.625s0.125,3.375-1,4.25s-0.375,1.25-2.25,3.375
		s-1.625,1.375-2.875,2.25s-0.875,2.5-0.375,4.5s0.5,2.5,1,4.875s2.375,1,3.59,1.25s1.16,2.875,1.16,2.875l0.25,2.625
		c-0.5,1.75,1.75,2.75,2.25,3.5s4,1.75,4,1.75c1,0.625,4.125,5.5,5.125,6.375s0.875,5.5,0.875,6.5c0,0.29,0.158,0.7,0.395,1.148
		l2.771-0.942l-2.771,0.942c0.578,1.098,1.682,2.444,2.48,2.977c1.125,0.75,2,2.375,3.25,3.25s2.25-0.75,3.125-0.625
		s7.5,2.5,10.25,2.75s4.125,0.75,4.25,0s-2.125-1.875-3.375-2.375s-3.875-2.625-4.75-3s-3.875-4.25-5.625-8.5s-1.625-8.5-1.625-8.5
		c-0.25-0.5-1.125-3.25-1.75-6.875s2.25-6,3.125-7s2.25-1.125,3.875-1.125s2.625-4.25,2.75-6.5s3.625-2.25,9.5-7.125s4-5.5,4-7.375
		s-4-1.75-6.5-2.375s-4.125-5.25-4.25-6.5s4.5-6.125,6.5-7.625s4-1,7.375-3.75s3-3.875,3.125-7.375s3.25-3.75,4.875-4.5
		s-1.25-2.5-1.25-3.625s1.75-1.125,1.875-2.125s-1.75-1.375-2.5-2.875s-0.125-2.125,0.75-3.75s-0.375-3-0.5-4.5
		s1.25-1.625,2.375-1.75s6.625,3.75,8.875,3.75s5.25-1,7.125-2.25s0.75-2.375,0.5-3.875s0.375-1.875,2.5-4.5s1.25-3.375,0.375-4.5
		s-0.75-1.875-0.75-1.875c0.25-3.125,4.625,0,9.5,0s3,0,9.375-1.375s12.625-2.875,13-3.375s2.25-1.25,2.875-3.375
		s6.125-5.875,6.5-6.625s3.375-4.125,0-5.75s-2.875-2.5-2.875-3.375s0.75-2.125,1.5-3.625s0-1.25-0.875-3s-5.375-3.75-6.625-4.5
		s0.25-4.625,0.25-4.625s0.335-3.957,2.668-7.124s0.999-4.501,1.166-5.334s-0.334-3.999,1.5-6.666s1.334-4,1.667-5.167
		s-0.253-5.928,3.873-6.581c-4.126,0.653-3.54,5.414-3.873,6.581s0.167,2.5-1.667,5.167s-1.333,5.833-1.5,6.666
		s1.167,2.167-1.166,5.334s-2.668,7.124-2.668,7.124s0.5-0.625,1.5,0.25s3.375,3.625,6.125,3.5s4.625,3.25,5.625,3.125
		s1.625,1.75,3.25,1.644s1.75-0.769,6.25-0.144s6.875-0.875,9.625-2.75s3.5-4.5,4.375-5.375c0.221-0.222,0.402-0.41,0.576-0.58
		c-0.764-2.076-1.261-4.876,0.174-7.297c2.667-4.5,0-3.167,0-4.833s-1.833-3.5-3-4.167s-5.167-3.833-7.333-5.667
		s-2.334-2.333-3.334-2s-2.333,0.667-2.5,0s1-0.5-1.666-4.333s-5-3-7.667-2.333s-0.333-1.334,0-1.834S499.23,612.5,503.396,607.833z
		"/>
</g>
<path opacity="0.7" fill="#A35FA6" stroke="#F1F2F2" stroke-miterlimit="10" d="M220.938,234.627c-0.625-1.875,3-8.125,3-8.125
	h10.375c0,0,0.625-0.25,0.625-1.875s-8.25-7.875-8.25-7.875v-1.25h4.25v-4.375h14.125h0.875l2.75-1.375c0,0,1.125-0.875,1.75-2.25
	s1.5-2.125,2.75-1.5c0.661,0.331,1.425,1.742,2,3.001v-0.001c1,1.75,2.375-0.691,2.375-0.691s0-1.934,1-4.184s1-3.375,1.25-4.25
	s0-1.625-0.375-2.25s0.625-1.375,1.125-2s0.625-2.375,0.625-3.5s4.75-5.125,5.375-6.625s0.5-3.25-0.625-4.5s-2.875,0-5,0
	s-2.875-0.5-4.625-0.625s-4.5,1.375-6.125,1.875s-3.25,0-7.75,0.75s-5.125,7.375-5.125,8.25s0.125,2.5-1.125,3
	s-0.875,2.375-1.375,3.875s-3.75,3.125-5.193,3.75s-0.307,1.75-0.307,1.75c1.25,1.375-1.625,1.75-3.125,2.25s-1.75-0.25-1.875-0.75
	s0-1.5-1.375-1.5s-4.5,1.375-6.125,2.25s-3.25,0.25-4.5,0s-3.375,1.125-6.625,2.25s-5-3.25-6.25-4.25s-4.5-0.5-5.25-0.625
	s-1.375-1.25-1.5-2.375s-0.875-1.625-1.875-2.375s-1.125-2.125-1.375-3.625s-0.25-2.375-1.875-4s-4.125-7-4.125-7s0,0,0-1.25
	s-1.375-2.625-2.125-5.25s-0.375-5.5-0.125-9.5s2.125-10.75,2.375-12.625s0.375-4.375,0.5-6s1.875-2.875,3.25-4.25
	s1.5-2.875,1.5-2.875c-1.25,0.25-2.125-1.375-2.25-1.5s-0.875-0.625-0.875-0.625s-4-0.125-4.5-1s-2.75-1-4.125-1.375
	s-1.75-1.625-1.875-3.125s-0.25-2.125-1-2.5s0-3.125,0-4.625s-1.375-2.5-3-4.375s-3.25-7.125-3.75-10s-6.125-6.125-10-6.625
	s-6.875,3.625-8.25,5.125s-2,0.5-3,0s-6-6.125-6.75-7.625s0-4.25,0-4.25s-0.375-1.625-2-2.875s-5.875-7.5-6.625-8.625
	s-2.625-1.75-2.625-1.75s-9.25-0.25-10.25-0.125s-0.625,2.875-0.625,2.875h-21.5l-23-13.5v-1.5H57.688l1.25,5.125
	c0,0-1.375,3.25,0.25,5.375s1,10,1.125,12s3.125,4.75,5.125,5.625s2,4,3.125,6s-1,6.125-1.25,7.625s-2.125,1.125-4.375,0.375
	s-1.875,0.75-1,1.625s2.25,3.875,2.25,3.875c1.25,0,5.25,4,6.25,3.875s5.375,4.375,7,7.375s-0.75,6.75-1.5,7.75s0,2.625,2.375,4.375
	s8.375,10.875,9.375,13.75s3,1.25,4.375,0.25s1.5-1.875,1.25-2.625s-1.125-1.625-2.375-4s-2.75-2.375-3.75-2.375
	s-1.125-1.125-1.875-3s0.125-3.375,0.125-5.625s-0.625-3.125-1.875-4.875s0-2.375,0-4s-1-4.75-2.125-5.875s-0.625-0.875-1-2.75
	s-1.375-4.375-2.625-5.125s-1.25-6.5-1.25-6.875s-1.5-1.25-2.125-4.625s-4-7.75-5.125-9.375s0.125-4.25,0.375-6.375
	s-0.125-6.25-0.125-6.25c0.625-0.875,1.25-3.625,1.25-4.75s3.875,3.5,4.5,3.75s1.625-0.625,2-0.875s1.875,2.5,2.625,3.25
	s2,1.75,1.375,5.375s1.25,5.75,2.25,10.5s2.5,7.5,3.25,10.5s1.125,3.75,4,4.375s1.625,4.125,1.625,5.75s3.125,1.875,3.625,3.75
	s3.125,2.625,3.75,4.125s-1.625,2.375-2.25,3.5s2,4.25,3.625,5.125s5.25,3.125,5.25,5.5s2.5,2.25,2.5,3.75s3.5,4.875,4.25,6.375
	s3.25,6.625,4.75,8s1.875,3.125,1.875,4.5s-0.5,3.25,1.25,4.75s1.125,5,1.125,6s-1.875,2.375-1.75,3.75s-0.625,1.25-1.375,1.5
	s-1.5,0.375-1,2.875s5.25,8.75,5.875,9.25s3.375-1.125,6.625,4.25s9.875,6.5,12.75,7.25s4.625,4.375,8.375,6.25
	s9.375,4.875,13.875,5.875s8.25,5.75,12,6.125s1.625,2.125,7.125,2.625s12.125-4.375,15-4.875s7.125,2.625,7.125,2.625
	s7.125,6.125,8.5,7.5c1.256,1.256,3.969,4.385,5,5.584v-2.084C220.313,237.127,221.563,236.502,220.938,234.627z"/>
<path opacity="0.7" fill="#A35FA6" stroke="#F1F2F2" stroke-miterlimit="10" d="M689.438,413.127c-1.375-3.875-8.5-3.125-9.75-3.375
	s-1.625-1.25-3.5-1.5s-0.75-0.25-1.875-1.5s-1.625-1.375-3-1.875s-5.375-6-7-7.75s-7.375-5.375-9.75-6.875s-4-1.75-5.5-1.25
	s-5,0.625-9.125,0.5s-4-0.625-7.625-2s-5.375-2-6.875-2s-2.625,1.5-4.5,1.5s-0.875,1.125-3.75,2.375s-2.25-0.5-2.75-1.625
	s0.625-1.125,1.75-4.375s-0.375-1.125-1-3.375s0.125-1.25-2.75-2.125s-2-0.625-4.25-1.75s-0.875-1.375-3.5-2.25
	s-6.25-1.625-9.75-3.25s-3-0.375-5.625-0.5s-1.625,0.75-2.25,1.75s-1.875,2.125-2.25,3.125s1,1.75,0,2.5s-1.75,0-2.5-0.25
	s-0.875,0-1.625,1.5s-2.25,1.375-2.625,2.25s-1.125,2.75-2.375,4.125s-1.125,5.625-1.375,6.25s0.125,2.125-0.875,1.625
	s0.125-4.875,0.125-6.25s2.5-5.433,2.5-5.433c0.75-1.433-0.375-1.192-2.125-0.692s-1.375,0.125-2.24-0.5s-2.01,0.625-3.635,1.125
	s-2.5-1.875-3.25-4.25s-1.25-3.125-1.875-3.75s-3,1.75-4.75,3.125s-4.375,1.375-6.25,1.375s-2.25-0.25-2.375-0.875
	s1.625-1,2.75-1.25s2.625-1.25,3.875-2.625s0.875-1.875,1.25-3.625s2.375-2.75,2.875-3.25s2.125-3,3.5-3.875s1.375-0.5,2.25-2.25
	s0.625-1.25,3.375-4.25s2.375-3.75,2-5.25s-2.875-2.375-3.625-2.75s-1.25-1.25-1.875-1.75s-0.75-2-0.75-2.875
	s-0.375-1.125-1.25-2.625s-0.75-3.125-1.125-4.875s-1.375-5-2.25-7c-0.766-1.751-2.203-2.831-3.388-3.577v0.968
	c-1.62,2.394-3.247,4.955-3.776,6.316c-1.167,3-4.167,11.667-6.667,11.667s-3.332-2.5-7.166-0.833s-7.334-1.333-8.834-1.167
	s-1.333,0.167-4.333,0.333s-6.167,0.333-5.667,1.667s2.334,3.833-3.333,3s-7.667,1.833-8.5,1.167s-6.834,2.667-7.667,2.833
	s-1.667,1.667-2.667,1.833s-7.833-3.5-8.333-6.5s-2.334-5.167-2.167-7.833s1.334-4.333,1.834-7s1.667-4.167-0.5-6
	s-1.168-3.833-2.334-5s-4.166-3.333-4.833-0.667s-3.999,4.833-7.333,6.666s-5.168,1.667-6.334,1.667s-3.166-0.666-4.166,1.667
	s-0.333,2.5-3.5,0.667s-4.501-1.5-5.334-1.333s-3.166-1.833-4.166-1.667s-5-1.167-2.667,0.833s3.501,2.333,3.667,5
	s1.332,4.666,1.666,6.333s0.334,2.333,1.834,2.5s4.666,1.167,3.666,1.833s-6.166,3-6,4.333s-1.5,1.167-3.5,2.5s-4.5,1.5-6.5,4.167
	s-2.833-1.167-4,0s-6.167,3.333-9.001-1.167c-0.792-1.258-1.528-2.55-2.209-3.737v0.001v-0.001c-1.755-3.059-3.127-5.391-4.033-4.43
	c-1.258,1.333-3.258,2.167-4.258,1.667s-2.5,0.667-2.5,0.667s-11-1.334-11.5,0.333s-1.501,5,1.666,6s4.834,2.667,2.167,3.167
	s-6.167-1-6.167,2s-2.833,4.333,3,8.833c0,0,2,4,2,5.333s-3,15-3,15L403.897,398l-0.569,1.623c0.077,0.208,0.054,0.352-0.133,0.379
	c-1.131,0.167-7.131-1.333-8.298-0.333s-14.835,5.167-15.501,7s-0.334,5.333-1.5,6.667s-0.167,2.333-1.5,4.833s-4.832,1.5-4.666,4.5
	s-2.334,2.833-2.334,4.167s3,1.5,3.167,3s5.999,7.5,5.333,9.667s-1.834,3.812,1.5,4.072s4.5,0.928,4.667,2.428
	s0.166,2.167,2.833,2.167s4.501,0.166,6.834-1.834s4.166-3.5,4.333,0.167c0.167,3.667-1.667,9.667,1.333,9.999
	c1.562,0.174,3.529-0.101,5.246,0.04c2.487-0.378,4.813-0.557,6.088-0.208c3.666,1,4.333,1.833,6.333-0.167s5.001-1.834,5.667-3.167
	s2.166-0.167,4.166-2s11.668-6.333,13.334-4.166c1.666,2.166,0.499,3.333,1.166,6.833s0.333,3.501,0.333,5.833
	c0,2.334,2.168,3.5,2.334,4.167s3.666,3.499,4.833,4.667c1.167,1.166,4.667,2.166,7.667,2.666s6.834,3.667,8.834,4.167
	s1.833,2.168,3.333,2.834s11.833-0.834,12.5,4.833s0.334,8.833,0.167,9.5s0.833,8.833,0.833,8.833s0.668,0.999,2.668,1.166
	s11.499-1.499,11.666,1.667s-0.999,4.5,1.501,7s4.166,1.834,3.833,6.167s-1.333,7.999-1.333,8.499s-3.166,3.166-3,4.5
	c0.09,0.722,0.081,1.926,0.029,3.016l0,0l0,0c-0.045,0.925-0.119,1.769-0.196,2.151c-0.167,0.833,0.667,1.834,0.667,5.167
	s-1.001,5.832-1.168,7.832s-0.666,4.167,1.167,4.167s7.5,1.833,8.833,0s2.166,0.962,3.333,0.814s3.334-1.147,3.334,2.186
	s0.332,12.166,4.499,12s6.501-0.834,4.834,6c-1.367,5.606-2.954,7.51-2.194,8.104l0,0l0,0c0.167,0.131,0.441,0.2,0.86,0.23
	c2.333,0.166,2.834-1.001,3.167,2.166s4.333,7.333-5.167,12.5s-12.001,6.666-16.167,11.333s-9.5,9.5-9.833,10s-2.667,2.501,0,1.834
	s5.001-1.5,7.667,2.333s1.499,3.666,1.666,4.333s1.5,0.333,2.5,0s1.168,0.166,3.334,2s6.166,5,7.333,5.667s3,2.501,3,4.167
	s2.667,0.333,0,4.833c-1.435,2.421-0.938,5.221-0.174,7.297c0.514-0.5,0.96-0.828,2.174-1.295c1.625-0.625,5.75-5.5,8.25-10
	s6-4.75,10.375-7.75s8.375-10.5,11.25-15s5.25-3.125,8.375-7s3.625-7,3.5-11.375s3.25-11,3.625-12.25s-0.25-1.625-0.25-2.125
	s0.75-1.375,2-1.375s1.625,0.375,3.25-2.375s8.75-5.25,9.375-6.375s2.75-1.375,4.5-1.75s5.375-0.75,7.125-1.75
	s5.125-2.125,6.125-2.625s0.25-1.25,0.125-2.148s1.125,0.023,2.25-1.227s5.25,0.125,7.625,0.891s7-0.016,7-0.016
	c4.5,0.25,4.625-2.625,4.75-3.5s4.625-2.75,7-3.375s1.75-3,2.125-5.625s3.625-5.5,5.375-7s1.25-2.75,5-6.875s3.25-9,3.125-10.375
	s0.75-3,2.875-5.125s2.875-2.25,2.875-4.375s0.625-4.75,2.875-10.375s1.875-11,1.75-16.25s2.125-10,2.375-11.5s0-1.25,1-3
	s1.75,1.125,2.875,1.625s5.125-5.125,7.25-8.625s2.25-6.375,7-10.125s7.5-7.625,11.875-13s6-9.75,6.375-17.625
	S690.813,417.002,689.438,413.127z"/>
<path opacity="0.7" fill="#A35FA6" stroke="#F1F2F2" stroke-miterlimit="10" d="M388.563,803.127c0-1,0.125-5.625-0.875-6.5
	s-4.125-5.75-5.125-6.375c0,0-3.5-1-4-1.75s-2.75-1.75-2.25-3.5l-0.25-2.625c0,0,0.055-2.625-1.16-2.875s-3.09,1.125-3.59-1.25
	s-0.5-2.875-1-4.875s-0.875-3.625,0.375-4.5s1-0.125,2.875-2.25s1.125-2.5,2.25-3.375s0.875-1.125,1-4.25s0.75-3.375,1.875-4.625
	s0.875-4,2.125-5.125s0.875-2.25,1-3.75s-0.375-4.5,1-6.75s-2.125-4.25-0.75-5.125s1.375-1.5,0.75-3.5s-0.5-7.25-2-9.875
	s-0.75-6.125,0.625-7.125s0.5-2.875,0.5-4.5s-1.375-5-0.375-7s0.125-2.875,1.5-4.375s0.5-3.125,1.375-3.875s1.5-2.25,1.625-3.125
	s-0.125-4,1.375-4.375s3-0.625,2.125-4s-2-6.625-0.875-10.125s0.875-3.875,2.125-4.625s2.875-1.625,3.125-2.875s1-3.875,0.5-4.5
	s-1.25-2.25,0.75-5.125s3.75-4.5,3.75-7.875s-0.75-4.125-0.875-6s-1.75-4.75-1.625-6.25s-2.625-5.125-2.5-7.125s0.875-2.25,1.75-4
	s1.25-4,1.375-4.375s2.625-1.625,2.625-2.5s-1.375-4.875-0.625-6.5s1.875-1.625,2-2.75s0.25-6.25,1.625-6.625s4.5-5.125,4.625-6.125
	s0.625-2.875,2.375-3s4.25-1.5,3.125-3.375s-0.75-3.25-0.5-5.25s-2.25-5.5-0.875-6.625s-0.625-3.75,0.375-4.5s8.25-3.75,9.5-5.25
	s-0.875-2.875,0.5-4.25s3-4.125,2-5.25s-4.5,0.5-5.625-1.875s-1-3.625-1.625-7s-1.5-6.25-2.625-7.5s-3.75-5.25-2.75-7.125
	s3.25-4.125,1.875-6.125s-3.5-6.75-3.625-8.625c-0.105-1.59-1.112-4.968-2.406-5.885c-0.203,0.07-2.805-0.489-3.195-0.423
	c-0.175,0.029-0.547,0.497-0.957,1.055c-0.022,0.044-0.044,0.081-0.066,0.128c-0.303,0.644-0.781,1.223-1.334,1.72
	c-0.006,0.007-0.014,0.018-0.02,0.023c-0.041,0.042-0.097,0.085-0.146,0.128c-0.019,0.017-0.037,0.033-0.056,0.05
	c-0.077,0.064-0.161,0.128-0.252,0.193c-0.519,0.396-1.074,0.719-1.61,0.953c-0.1,0.05-0.172,0.086-0.172,0.086
	c-0.268,1.356-0.343,2.829,0.005,4.221c1,4,1.333,10.168,1.333,17.334s0.667,3.834-0.833,14.5s-3.998,12.333-3.665,14.833
	s0.939,8-0.03,9.667s-1.305,12-3.138,15.334s-2.333,4.167-2.333,7.667s-3.001,5.334-2.834,6.167s0.167,3.666,1,5.666
	s0.153,2.666-1.007,4.333s-1.828,6.834-1.661,9.001s1.167,8.667,1.167,9.167s-0.219,6-1.192,7.5s-0.807,2.667-1.974,4.167
	s-1.167,1.999-1.667,4.333s-2.499,8.333-3.832,9.833s-2.166,2.834-2.333,4.334s-0.485,3-1.326,3.833s-0.342,3.501-1.508,4.667
	s-2.667,1.666-2.5,3.166s0.834,4.168,0.834,5.168s-1,2,0,4.333s1.834,4.167,1,6.5s-3,3.833-3.167,5s-1.5,5.5-1,8.333
	s1,4.001,2.333,4.167s3.999-2.666,4.833-1.5s0.667,1.832,0.667,2.666s0.333,1.167,0,3.167s-2.151,2.167-1.492,3.167
	s1.341,1.667,0,4.5s0,4.5,0,4.5l-1.842,1.5c0,0,0.35,2.167,1.842,3.167s-0.009,2.499-1.342,4.166s-3.166,4.334-3.166,5.167
	s-1.555,6.334-1.944,6.167s-0.89-2.333-1.89-3s-3.167-1.667-4.5-0.167s-4.333,2.342-4.333,3.171s-0.333,1.33,1.167,1.496
	s1.832,1.334,2.666,1.5s5.834-1.001,4.667,1.666s-1.666,2.167-1.333,3.667s-0.501,3.334,0.666,3.667s-0.333,1.333-0.333,1.333
	s1.334,1.833,0.667,2.833s-1.334,0.667-1.334,2.167s0,3.999,0.333,4.666s1,1.834,1,4.167s-1.001,3-0.167,4s2.145,1,1.822,2.5
	s-0.845,2.166,0,3.833s0.678,1.833,0.845,2.833s0.999,3.168,1.833,3.334s0.834,1,0.834,2.333s-0.833,1.333,0,3
	s1.666,1.833,2.166,2.5s3.001-0.499,4.334,1.667s1.166,2.834,2.833,3s2.304,0,3.068,1s-0.567,0.999,2.099,1.166
	c1.214,0.076,2.428-0.297,3.391-0.726l0.006-0.002C388.721,803.827,388.563,803.417,388.563,803.127z"/>
<path opacity="0.7" fill="#A35FA6" stroke="#F1F2F2" stroke-miterlimit="10" d="M401.005,515.741
	c0.084-0.064,0.17-0.126,0.252-0.193c0.021-0.017,0.037-0.033,0.056-0.05c0.058-0.048,0.111-0.101,0.166-0.151
	c0.342-0.354,0.899-1.167,1.4-1.848c0.973-1.934,1.845-0.75,3.434-0.872c0,0-0.251-1.624-1.084-3.458s1.666-1.833,3-3.333
	s2.666-4.667,0.333-6s-2-4.5-0.833-5.667s0.833-2.833,0.666-3.333s-2.5-1.5,0.667-4.833s1.167-6.5,1.5-7.167
	s0.833-4.167,0.667-5.333s1.666-3.333,2.333-4.667s-4-7-5.333-10.167c-0.639-1.518-2.007-1.997-3.587-2.127
	c-0.462,0.07-0.928,0.146-1.396,0.228c0.468-0.082,0.934-0.157,1.396-0.228c-1.717-0.141-3.684,0.134-5.246-0.04
	c-3-0.332-1.166-6.332-1.333-9.999c-0.167-3.667-2-2.167-4.333-0.167s-4.167,1.834-6.834,1.834s-2.666-0.667-2.833-2.167
	s-1.333-2.167-4.667-2.428s-2.166-1.906-1.5-4.072s-5.166-8.167-5.333-9.667s-3.167-1.667-3.167-3s2.5-1.167,2.334-4.167
	s3.333-2,4.666-4.5s0.334-3.5,1.5-4.833s0.834-4.833,1.5-6.667s14.334-6,15.501-7s7.167,0.5,8.298,0.333l0.133-0.379
	c-0.393-1.055-3.678-3.954-4.931-3.954c-1.5,0,2.833-6.167,4.5-8.5s-4.167-3.167-5.167-3.033s-2.333-2.467-4.666-1.634
	s-2.501-0.333-4.001-1s-4.5,2.5-6.5,2.634s-5-2.301-6-3.134s1.833-1.833,0-2.333s-2.167-1-3-2.667s-0.334-2-3-3.167
	s-1.167-1.667-3.014-3.833s-4.653-4.667-6.319-5.333s-4.5-0.833-4.834,0s2,3.167,2.167,4.5s0.667,2.667-0.833,3.833
	s-0.334,2.5-1.834,4.5s-3.999,4.5-6.166,6.167s-5.833,3.5-10.333,4.833s-4.001,3.5-5.668,5.5s-3.999,6.333-3.999,9
	s-2.5,3.167-3.666,3.167s-2.5-1.833-4.5-3.667s-2.334-1.667-3.884-1.833s-2.45,0.667-2.45-1.167s0.334-1.5,2-2.833
	c0.662-0.53,0.504-1.428,0.079-2.318c-0.201,0.147-0.546,0.221-1.121-0.099c-1.125-0.625-1.25,0-2,0.25s-4.25,4.25-5.75,6.125
	s0.25,3.5,0.75,5.75s1.125,3.25,2.5,5.25s-0.5,1.625-1.25,2.625s-0.375,1.5,1.5,3.375s3.5,1.875,7.25,4.125
	s5.875,9.875,8.125,12.898s9.125,17.977,9.375,19.352s3,6.5,3.375,7s2.625,2,3.25,5.125s7.375,10.125,8.375,11.875
	s-1.625,1.875-1.375,4.375s6.5,9.125,12.125,12.5s21.625,13,26,15.75s7.75,7.375,9.125,7.5c0.436,0.04,1.028-0.1,1.658-0.354
	c0.057-0.023,0.115-0.054,0.174-0.078C399.717,516.53,400.447,516.143,401.005,515.741z"/>
</svg>
