<?xml version="1.0" encoding="utf-8"?>
<!-- Generator: Adobe Illustrator 16.0.0, SVG Export Plug-In . SVG Version: 6.00 Build 0)  -->
<!DOCTYPE svg PUBLIC "-//W3C//DTD SVG 1.1//EN" "http://www.w3.org/Graphics/SVG/1.1/DTD/svg11.dtd">
<svg version="1.1" id="Layer_1" xmlns="http://www.w3.org/2000/svg" xmlns:xlink="http://www.w3.org/1999/xlink" x="0px" y="0px"
	 width="512px" height="512px" viewBox="0 0 512 512" enable-background="new 0 0 512 512" xml:space="preserve">
<path fill="#EFEFEF" d="M436.979,75.021C336.96-25,175.056-25.016,75.021,75.021C-25,175.041-25.015,336.943,75.021,436.979
	c100.019,100.021,261.922,100.035,361.957,0C537,336.958,537.014,175.056,436.979,75.021z M426.281,400.494
	c-11.959-10.693-24.75-20.156-38.233-28.312c8.912-30.783,14.191-64.658,15.439-99.872h75.248
	C475.333,319.773,457.096,364.299,426.281,400.494L426.281,400.494z M33.264,272.31h75.248c1.248,35.214,6.528,69.089,15.439,99.872
	c-13.483,8.156-26.274,17.619-38.233,28.312C54.903,364.299,36.667,319.773,33.264,272.31z M85.719,111.505
	c11.958,10.693,24.75,20.157,38.232,28.312c-8.912,30.784-14.191,64.659-15.439,99.873H33.264
	C36.667,192.226,54.903,147.701,85.719,111.505z M239.69,143.188c-26.601-1.902-52.249-8.454-76.026-19.262
	c13.829-35.61,39.322-78.32,76.026-88.904V143.188z M239.69,175.869v63.821h-98.545c1.129-29.788,5.35-58.392,12.369-84.563
	C180.536,166.939,209.596,173.994,239.69,175.869z M239.69,272.31v63.821c-30.095,1.875-59.155,8.93-86.176,20.742
	c-7.019-26.172-11.24-54.775-12.369-84.563H239.69z M239.69,368.812v108.165c-36.702-10.584-62.195-53.289-76.026-88.903
	C187.442,377.266,213.09,370.715,239.69,368.812z M272.31,368.812c26.601,1.902,52.248,8.453,76.026,19.262
	c-13.83,35.611-39.322,78.319-76.026,88.903V368.812z M272.31,336.131V272.31h98.545c-1.13,29.788-5.35,58.392-12.369,84.563
	C331.465,345.061,302.404,338.006,272.31,336.131L272.31,336.131z M272.31,239.69v-63.821c30.095-1.875,59.155-8.93,86.176-20.742
	c7.02,26.171,11.239,54.775,12.369,84.563H272.31z M272.31,143.188V35.022c36.704,10.584,62.197,53.294,76.026,88.904
	C324.558,134.734,298.91,141.286,272.31,143.188z M345.57,51.306c20.878,9.143,40.355,21.54,57.816,36.921
	c-8.312,7.328-17.081,13.973-26.238,19.915C369.016,88.006,358.627,68.438,345.57,51.306z M134.851,108.142
	c-9.158-5.942-17.927-12.587-26.239-19.915c17.461-15.381,36.939-27.778,57.817-36.921
	C153.372,68.44,142.983,88.008,134.851,108.142L134.851,108.142z M134.852,403.858c8.131,20.135,18.521,39.703,31.578,56.835
	c-20.878-9.142-40.356-21.539-57.817-36.92C116.924,416.445,125.694,409.801,134.852,403.858z M377.148,403.858
	c9.157,5.942,17.927,12.587,26.238,19.913c-17.461,15.382-36.938,27.779-57.816,36.921
	C358.626,443.562,369.016,423.994,377.148,403.858L377.148,403.858z M403.488,239.69c-1.248-35.213-6.527-69.09-15.439-99.873
	c13.483-8.155,26.273-17.619,38.233-28.312c30.814,36.195,49.051,80.72,52.454,128.185H403.488z"/>
</svg>
